<svg width="1920" height="1024" viewBox="0 0 1920 1024" fill="none" xmlns="http://www.w3.org/2000/svg">
<g clip-path="url(#clip0_111:6)">
<rect width="1920" height="1024" fill="#211C65"/>
<path fill-rule="evenodd" clip-rule="evenodd" d="M0.0205254 59.8445V192.649L15.1513 178.561L30.2813 164.471L164.99 290.04L299.699 415.61L441.127 415.417L582.555 415.224L585.299 406.84C600.511 360.357 613.807 333.777 632.895 311.69C639.249 304.337 652.567 292.414 658.886 288.42C688.355 269.798 720.617 272.352 747.088 295.404C750.075 298.005 755.927 303.946 760.091 308.606C775.982 326.386 789.502 334.322 799.588 331.79C807.285 329.858 815.07 319.203 819.702 304.258C825.653 285.062 828.135 250.947 825.851 219.722C825.437 214.063 824.661 202.631 824.127 194.319C820.952 144.985 833.572 113.45 858.939 107.331C890.151 99.8017 934.839 130.269 986.822 194.519C1001.7 212.91 1016.35 227.407 1031.5 238.749C1079.07 274.358 1134.47 284.733 1188.5 268.158C1229.21 255.673 1266.23 228.467 1296.94 188.472C1300.33 184.07 1309.17 171.38 1316.59 160.271C1365.92 86.477 1379.13 66.7035 1392.48 46.7043C1400.74 34.3377 1409.68 21.1327 1412.37 17.3599C1436.16 -16.1202 1467.96 -45.5043 1508.63 -71.5865C1510.53 -72.8037 1466.04 -72.8822 755.334 -72.9203L0.0205254 -72.96V59.8445ZM1530.67 -70.0705C1520.54 -64.5537 1500.77 -51.6963 1489.8 -43.4898C1477.33 -34.1704 1457.88 -16.7917 1447.64 -5.83212C1431.58 11.3584 1428.36 15.8972 1367.67 106.918C1324.71 171.355 1314.26 186.763 1308.07 194.827C1254.01 265.174 1178.35 298.775 1105.2 284.919C1068.06 277.884 1034.56 260.461 1004.87 232.746C993.463 222.096 986.187 214.137 973.391 198.315C958.821 180.296 948.898 169.61 933.062 154.883C911.172 134.526 893.558 122.989 879.005 119.475C872.071 117.802 862.725 118.236 858.118 120.446C841.347 128.491 834.008 158.082 837.655 202.954C839.661 227.647 840.136 250.068 838.993 266.198C835.96 308.979 825.466 333.931 807.143 341.923C797.473 346.141 787.513 344.866 774.542 337.751C769.797 335.148 757.586 324.174 742.864 309.285C733.728 300.044 724.031 293.469 715.32 290.607C708.117 288.241 694.206 287.67 686.855 289.438C668.591 293.832 650.502 307.907 634.91 329.859C620.749 349.794 609.927 372.405 600.579 401.592C598.445 408.251 596.525 414.129 596.31 414.653C596.001 415.405 602.753 415.606 628.401 415.606H660.882L670.039 407.412C699.461 381.086 731.511 371.248 759.225 380.036C771.586 383.956 777.831 387.717 790.289 398.743C808.29 414.674 820.785 419.381 831.989 414.452C844.858 408.789 855.83 387.135 860.242 358.692C861.621 349.805 862.143 341.363 862.686 319.188C863.401 290.01 863.967 283.656 866.743 273.659C870.769 259.162 876.02 249.97 884.577 242.445C893.511 234.589 902.921 231.155 915.509 231.155C944.128 231.155 978.121 250.923 1017.22 290.304C1033.47 306.672 1039.01 311.629 1048.87 318.625C1101.9 356.267 1172.9 360.978 1239.56 331.28C1264.49 320.174 1283.62 308.105 1305.93 289.408C1318.78 278.633 1330.49 266.438 1351.74 241.711C1409.81 174.126 1445.98 132.254 1452.06 125.591C1466.56 109.682 1489.46 89.8711 1509.42 75.9557C1602.06 11.3751 1729.37 -21.1636 1838.55 -8.16367C1863.97 -5.137 1873.35 -3.02116 1930.08 12.4803C1953.03 18.7516 1980.09 26.1411 1990.2 28.901C2000.32 31.6609 2015.22 35.731 2023.32 37.9459C2083.1 54.3011 2088.6 55.5831 2112.04 58.6364C2125.01 60.3262 2164.41 60.5655 2177.45 59.0343C2262.63 49.029 2329.53 2.80428 2357.82 -65.5941C2359.35 -69.2976 2360.6 -72.4706 2360.6 -72.6444C2360.6 -72.8182 2347.24 -72.96 2330.91 -72.96H2301.21L2295.95 -66.7191C2279.03 -46.6392 2255.55 -29.1811 2229.49 -17.3146C2178.5 5.90565 2120.98 7.7875 2058.09 -11.7063C2046.87 -15.1865 1974.66 -43.5332 1913.43 -68.4958L1902.48 -72.96H1719.23H1535.97L1530.67 -70.0705ZM1936.33 -72.6238C1936.53 -72.4386 1962.07 -62.1132 1993.09 -49.6773C2063.8 -21.3305 2078.55 -16.64 2110.81 -12.2589C2124.8 -10.3588 2155.4 -10.3687 2168.86 -12.278C2208.05 -17.8374 2242.85 -33.688 2270.11 -58.396C2273.63 -61.585 2278.36 -66.1673 2280.62 -68.5774L2284.72 -72.96H2110.34C2014.44 -72.96 1936.13 -72.8083 1936.33 -72.6238ZM2374.11 -72.0072C2351.73 -9.76733 2303.65 35.6129 2235.81 58.5381C2196.47 71.8292 2149.96 75.8795 2105.49 69.8872C2084.33 67.0343 2077.49 65.3612 1997.15 43.3926C1976.47 37.7348 1954.94 31.8545 1949.32 30.3248C1943.7 28.7951 1934.32 26.2295 1928.47 24.6243C1877.99 10.7585 1868.04 8.33476 1850.38 5.59467C1787.01 -4.2399 1714.84 2.06038 1645.56 23.4757C1609.08 34.7524 1566.32 54.1456 1535.59 73.3544C1516.19 85.4748 1498.42 98.932 1481.72 114.14C1467.97 126.66 1460.46 134.837 1427.08 173.657C1335.44 280.219 1337.86 277.499 1321.26 292.517C1299.44 312.253 1277.62 326.961 1252.27 339.023C1227.58 350.767 1202.37 358.124 1175 361.568C1163.56 363.007 1137.45 362.812 1125.57 361.198C1083.79 355.52 1049.76 339.18 1020.05 310.526C985.418 277.122 975.447 268.627 959.136 258.624C948.502 252.104 938.443 247.512 929.634 245.156C919.627 242.48 908.844 242.743 901.647 245.838C889.524 251.05 881.318 264.615 877.332 286.033C876.824 288.758 876.101 303.678 875.725 319.188C874.84 355.7 872.933 369.781 866.326 388.606C856.02 417.971 836.782 432.609 815.227 427.487C803.451 424.689 795.877 420.231 781.951 407.903C772.238 399.303 764.272 394.434 755.129 391.511C749.435 389.69 747.317 389.417 738.776 389.405C727.65 389.389 722.734 390.385 711.36 394.955C703.308 398.192 693.282 404.187 685.015 410.712L679.496 415.067V470.754V526.441L682.971 523.383C698.018 510.143 710.567 501.063 723.845 493.81C752.402 478.208 779.456 473.794 802.938 480.905C810.119 483.079 816.144 486.081 822.995 490.895C825.693 492.791 830.661 495.576 834.034 497.085C839.928 499.721 840.515 499.828 849.16 499.828C857.401 499.828 858.554 499.645 862.924 497.646C872.814 493.123 883.05 481.647 889.264 468.112C894.735 456.198 898.429 441.506 900.706 422.614C901.396 416.873 902.892 408.644 904.029 404.327C916.54 356.787 959.71 342.521 1013.97 367.994C1026.96 374.093 1042.53 384.103 1058.53 396.643C1082.95 415.782 1112.76 425.512 1150.88 426.785C1211.38 428.808 1279.53 406.301 1339.03 364.643C1354.7 353.673 1354.18 354.108 1442.32 277.31C1503.25 224.217 1507.52 220.839 1536.81 202.581C1619.71 150.911 1731.47 115.182 1835.01 107.247C1853.85 105.802 1889.47 105.616 1905.58 106.877C1915.92 107.687 1966.01 114.026 2062.98 126.795C2108.43 132.782 2117.44 133.56 2141.54 133.578C2195.61 133.621 2244.21 123.514 2289.88 102.732C2331.61 83.7408 2362.82 59.4855 2384.33 29.3172C2394.58 14.9498 2398.2 7.37668 2410.09 -24.5607C2420.47 -52.4555 2421.97 -56.2489 2426.05 -64.7664L2429.97 -72.96H2402.21C2380.73 -72.96 2374.38 -72.7443 2374.11 -72.0072ZM2439.52 -62.8609C2436.34 -56.6856 2430.05 -41.361 2423.31 -23.4174C2411.65 7.66555 2408.41 15.1869 2402.48 24.9818C2362.42 91.1218 2271.05 137.857 2167.64 145.096C2151.35 146.236 2115.14 145.597 2101.41 143.926C2095.78 143.242 2061.01 138.741 2024.14 133.922C1918.84 120.164 1917.57 120.004 1907.21 119.183C1865.51 115.876 1819.07 118.808 1769.44 127.88C1679.1 144.391 1589.08 180.25 1524.55 225.435C1507.1 237.65 1503.04 241.025 1449.43 287.831C1422.95 310.947 1400.14 330.854 1398.73 332.07C1364.31 361.837 1361.78 363.89 1345.48 375.239C1275.42 424.016 1191.34 447.074 1123.18 436.203C1106.44 433.533 1093.14 429.665 1078.91 423.327C1067.38 418.195 1058.64 412.799 1046.22 403.159C1014.98 378.912 985.045 366.475 961.18 367.831C948.664 368.543 938.879 372.715 930.768 380.797C921.112 390.42 916.153 402.941 913.744 423.78C910.539 451.508 903.219 473.358 891.845 489.157C886.952 495.954 877.694 504.036 871.15 507.225C863.239 511.079 857.762 512.404 849.743 512.404C837.851 512.404 828.886 509.448 816.595 501.471C807.413 495.512 802.315 493.065 795.818 491.496C765.299 484.124 725.079 500.516 689.498 534.829L679.496 544.475V594.751C679.496 622.401 679.718 645.026 679.99 645.026C680.26 645.026 683.48 642.518 687.144 639.454C713.59 617.334 743.498 599.81 774.344 588.363C786.456 583.869 802.313 579.834 813.666 578.357C829.895 576.248 838.575 577.009 853.929 581.888C862.9 584.739 864.682 585.054 872.055 585.096C888.233 585.188 902.587 578.879 916.298 565.65C922.473 559.692 930.054 549.495 933.454 542.573C934.585 540.269 937.149 534.181 939.152 529.046C941.154 523.91 944.306 517.243 946.155 514.231C956.718 497.021 977.496 484.5 1002.47 480.297C1010.21 478.994 1032.62 478.994 1041.15 480.297C1057.87 482.848 1071.78 487.012 1090 494.916C1110.04 503.605 1123.06 505.922 1151.69 505.89C1171.87 505.868 1183.56 504.903 1203.21 501.637C1261.7 491.915 1329.67 466.618 1386.47 433.432C1392.38 429.983 1427.51 408.323 1464.56 385.299C1535.25 341.362 1539.76 338.621 1553.57 331.229C1653.32 277.844 1800.27 232.73 1915.39 220.148C1941.84 217.257 1951.14 216.829 2040.08 214.406C2129.71 211.964 2133.7 211.814 2153.33 210.14C2254.82 201.483 2362.43 162.199 2416.04 114.231C2425.71 105.581 2431.61 98.7194 2443.06 82.8048L2453 68.9817V-1.98915V-72.96H2448.86H2444.71L2439.52 -62.8609ZM2449.32 96.0563C2440.14 109.049 2423.38 125.496 2408.03 136.576C2347.56 180.229 2250.07 213.376 2157.01 221.929C2135.65 223.891 2134.65 223.931 2037.22 226.617C1992.25 227.856 1950.12 229.232 1943.6 229.675C1829.85 237.388 1674.9 281.93 1567.88 337.673C1548.19 347.929 1545.01 349.842 1463.62 400.32C1423.37 425.285 1384.74 448.791 1377.77 452.553C1324.54 481.305 1261.35 503.611 1207.3 512.73C1186.77 516.194 1177.41 517.083 1157.01 517.508C1122.95 518.219 1106.4 515.473 1082.63 505.172C1064.82 497.451 1054.65 494.484 1038.34 492.252C1021.12 489.894 1005.06 491.165 990.369 496.047C980.279 499.401 972.057 504.3 965.182 511.055C958.705 517.419 954.716 524.007 950.497 535.306C942.356 557.11 927.992 575.383 910.766 585.85C889.274 598.909 870.926 600.634 845.481 591.987C811.124 580.312 740.656 608.519 688.286 654.909L679.496 662.695V703.022C679.496 725.201 679.757 743.348 680.076 743.348C680.396 743.348 693.55 737.371 709.308 730.066C753.202 709.718 781.278 698.673 818.089 687.271C850.273 677.302 862.872 674.646 888.135 672.503C916.896 670.063 954.799 654.631 977.124 636.272C994.614 621.888 1018 611.709 1051.53 603.889C1075.46 598.309 1090.45 596.379 1116.94 595.466C1137.19 594.77 1148.71 593.677 1164.37 590.974C1209.88 583.115 1273.96 565.79 1339.19 543.703C1379.72 529.982 1401.56 521.687 1471.81 493.343C1588.35 446.317 1604.48 440.061 1649.65 424.353C1690.88 410.013 1761.95 387.112 1796.01 377.19C1861.51 358.107 1900.16 347.621 1944.82 336.814C1974.6 329.61 1989.78 326.348 2083.83 306.957C2163.31 290.567 2186.45 285.528 2211.72 279.113C2300.68 256.525 2381 229.964 2436.85 204.666L2453 197.351V144.512C2453 115.451 2452.87 91.6737 2452.71 91.6737C2452.55 91.6737 2451.02 93.6462 2449.32 96.0563ZM14.9346 209.25L0.0205254 223.167V319.386V415.606H133.094H266.166L148.017 305.469C83.0343 244.893 29.8627 195.332 29.8577 195.332C29.8528 195.332 23.1374 201.595 14.9346 209.25ZM2438.28 217.484C2407.02 231.368 2364.87 246.834 2316.86 262.034C2293.97 269.282 2249.7 281.891 2223.38 288.661C2193.29 296.402 2168.27 301.886 2076.88 320.774C1967.21 343.44 1945.04 348.514 1883.91 364.929C1792.98 389.349 1689.15 422.147 1612.7 450.607C1585.29 460.807 1576.36 464.324 1519.64 487.236C1414.61 529.665 1398.36 536.004 1362.24 548.627C1279 577.722 1194.55 600.032 1145.97 605.762C1140.57 606.398 1127.14 607.255 1116.13 607.666C1083.53 608.88 1056.59 613.523 1030 622.51C1009.72 629.363 998.335 635.292 985.361 645.764C975.54 653.692 963.07 661.151 948.915 667.564C927.062 677.465 907.374 683.063 888.817 684.653C862.903 686.872 843.834 691.207 809.504 702.682C777.595 713.349 750.214 724.522 707.909 744.14L679.496 757.317V763.486V769.654L703.945 792.434L728.394 815.216L740.126 813.53C806.896 803.94 885.867 782.045 910.978 766.159C916.246 762.826 929.293 756.64 937.059 753.794C960.761 745.105 991.596 740.182 1013.92 741.521C1019.99 741.887 1028.64 742.111 1033.13 742.021C1053.7 741.609 1083.22 733.451 1112.45 720.104C1128.74 712.664 1138.45 707.377 1151 699.122C1162.89 691.296 1168.62 688.062 1182.63 681.263C1239.3 653.779 1358.17 616.594 1455.45 595.915C1469 593.036 1547.24 576.555 1568.27 572.152C1615.51 562.258 1632.64 558.399 1666 550.128C1764.52 525.707 1894.55 485.71 1986.82 451.443C2014.25 441.256 2022.96 437.775 2107.95 403.026C2207.81 362.196 2227.89 354.493 2276.65 338.309C2337.07 318.254 2402.7 300.208 2446.25 291.669L2453 290.346V250.842C2453 229.115 2452.72 211.373 2452.39 211.415C2452.05 211.458 2445.7 214.189 2438.28 217.484ZM2449.32 303.325C2387.3 316.511 2323.07 334.723 2255.54 358.276C2220.9 370.356 2206.24 376.097 2119.8 411.421C2081.13 427.227 2041.78 443.241 2032.36 447.007C1928.22 488.643 1760.51 540.753 1640.52 568.757C1619.36 573.695 1606.73 576.424 1538.04 590.895C1464.8 606.324 1442.06 611.225 1426.02 615.04C1335.11 636.661 1245.83 665.317 1193.92 689.538C1178.08 696.926 1173.56 699.434 1156.68 710.167C1141.83 719.604 1133.19 724.32 1118.69 730.882C1087.77 744.881 1055.96 753.564 1033.54 754.125C1029.72 754.221 1020.89 754.02 1013.92 753.678C1005.3 753.256 998.365 753.348 992.251 753.965C965.124 756.701 937.725 764.691 920.981 774.747C912.396 779.903 907.164 782.534 897.811 786.396C864.698 800.068 807.849 814.81 755.095 823.405C747.019 824.72 740.334 825.868 740.24 825.955C740.145 826.042 757.861 842.696 779.609 862.966L819.15 899.819L826.388 899.689C849.337 899.274 881.215 893.84 899.925 887.154C921.307 879.513 933.598 871.312 942.385 858.821C951.795 845.443 964.178 837.248 981.621 832.85C989.145 830.953 1006.17 830.572 1015.55 832.093C1030.52 834.518 1045.55 840.447 1060.22 849.718C1073.53 858.133 1080.96 861.046 1092.09 862.216C1114.83 864.605 1138.75 855.007 1160.29 834.85C1170.95 824.869 1177.64 816.389 1186.33 801.831C1189.64 796.285 1194.85 788.651 1197.92 784.867C1231.12 743.869 1314.04 706.087 1408.44 688.952C1447.71 681.823 1461.27 680.753 1564.2 676.663C1663.67 672.711 1674.82 671.952 1710.16 666.719C1835.99 648.084 1986.98 595.488 2073.2 540.247C2077.24 537.654 2095.27 526.143 2113.26 514.668C2131.25 503.192 2149.72 491.386 2154.31 488.432C2219.2 446.644 2233.53 438.243 2264.85 423.644C2321.13 397.408 2385.44 378.658 2438.69 372.96C2442.74 372.527 2447.61 371.978 2449.52 371.739L2453 371.305V337.053C2453 310.113 2452.78 302.82 2451.98 302.889C2451.42 302.938 2450.22 303.134 2449.32 303.325ZM2438.28 384.818C2374.12 392.798 2305.2 415.092 2244.09 447.641C2232.41 453.862 2207.58 468.977 2181.95 485.471C2148.9 506.733 2076.46 552.843 2068.42 557.726C1980.41 611.203 1826.64 662.818 1705.25 679.631C1670.83 684.399 1663.93 684.854 1571.56 688.455C1528.62 690.13 1487.59 691.862 1480.39 692.306C1374.66 698.82 1268.03 734.774 1219.56 780.258C1209.73 789.482 1204.64 795.905 1197.48 808.135C1176.69 843.646 1146.59 867.055 1113.71 873.297C1108.45 874.296 1104.15 874.529 1095.72 874.269C1086.07 873.971 1083.65 873.619 1076.88 871.522C1068.51 868.931 1061.46 865.433 1051.12 858.747C1035.13 848.404 1018.15 843.196 1000.41 843.196C989.497 843.196 981.589 844.75 973.445 848.495C964.836 852.453 959.31 857.121 953.204 865.592C950.449 869.414 946.333 874.274 944.058 876.394C926.28 892.952 890.994 905.571 850.387 909.895C843.866 910.59 837.143 911.386 835.447 911.666L832.364 912.174L876.096 952.922L919.83 993.669L926.195 991.927C940.173 988.102 952.596 981.279 961.014 972.804C967.111 966.665 969.368 962.923 973.53 952.053C979.25 937.112 985.047 929.103 994.319 923.332C1010.22 913.436 1029.78 913.405 1051.94 923.24C1068.87 930.756 1082.26 940.98 1105.91 964.448C1121.71 980.13 1136.88 987.179 1152.92 986.292C1165.69 985.586 1174.71 981.39 1186.07 970.863C1194.87 962.714 1200.98 954.373 1207.61 941.477C1213.59 929.863 1216.56 922.02 1221.18 905.676C1225.89 888.972 1227.44 884.799 1232.66 874.619C1272.07 797.738 1395.19 750.579 1520.69 764.293C1526.41 764.918 1565.68 769.359 1607.97 774.162C1650.25 778.964 1690.54 783.301 1697.5 783.799C1713.43 784.938 1754.39 784.298 1771.89 782.636C1800.73 779.898 1826.45 775.592 1863.47 767.3C1894.34 760.386 1944.21 744.212 1970.04 732.736C2012.89 713.694 2027.33 706.342 2053.16 690.399C2069.64 680.23 2083.23 670.685 2096.35 660.046C2101 656.285 2129.88 630.525 2160.54 602.801C2241.09 529.973 2239.95 530.982 2250.22 522.976C2304.95 480.304 2374.19 452.977 2441.35 447.545L2453 446.602V415.098V383.593L2449.93 383.672C2448.25 383.715 2443 384.231 2438.28 384.818ZM0.0205254 445.127V453.307L8.60595 445.331C13.3279 440.945 17.1914 437.263 17.1914 437.151C17.1914 437.039 13.3279 436.947 8.60595 436.947H0.0205254V445.127ZM129.62 518.502L217.106 600.056H237.685H258.264L267.122 594.832C294.925 578.437 330.298 562.729 354.885 555.858C371.038 551.344 381.218 549.684 395.649 549.21L409.021 548.771L349.044 492.859L289.067 436.947H165.6H42.1333L129.62 518.502ZM387.591 497.541C461.233 566.192 452.531 559.547 464.934 556.598C493.716 549.755 526.033 521.21 551.813 479.861C558.047 469.862 568.968 448.881 573.257 438.662L573.977 436.947H448.285H322.591L387.591 497.541ZM587.37 438.281C583.014 449.984 567.897 478.984 558.862 492.968C533.958 531.511 501.115 559.434 471.235 567.466L464.527 569.269L485.309 588.63L506.091 607.991L509.597 606.202C550.555 585.297 591.126 538.526 617.738 481.535C623.632 468.911 631.99 453.881 638.399 444.378L643.412 436.947H615.639C589.924 436.947 587.83 437.046 587.37 438.281ZM651.62 447.618C643.519 459.096 632.641 478.795 627.09 492.039C624.722 497.688 611.076 522.173 605.757 530.316C582.894 565.316 554.05 594.29 524.457 611.979L515.868 617.113L535.09 635.029C553.688 652.366 554.375 652.914 556.299 651.955C557.392 651.409 562.287 648.2 567.175 644.823C599.252 622.662 623.857 598.005 648.287 563.54L656.612 551.796L656.402 496.467L656.192 441.139L651.62 447.618ZM14.9346 456.2L0.0205254 470.118V535.087V600.056H99.569H199.117L114.493 521.169C67.9492 477.781 29.8635 442.282 29.8586 442.282C29.8528 442.282 23.1374 448.545 14.9346 456.2ZM2433.38 460.195C2385.24 465.685 2336.98 482.255 2293.97 508.058C2281.48 515.545 2262.05 529.201 2252.08 537.484C2247.48 541.306 2214.18 571.144 2178.08 603.792C2141.98 636.439 2108.19 666.556 2103 670.719C2079.82 689.288 2051.1 707.406 2017.6 724.592C1982.4 742.643 1933.54 761.069 1888 773.46C1870.49 778.223 1836.24 786.2 1827.9 787.459C1781.78 794.414 1756.38 796.704 1725.42 796.699C1698.79 796.694 1695.34 796.362 1554.39 780.246C1500.47 774.08 1483 773.05 1457.5 774.531C1397.32 778.025 1345.66 792.831 1304.66 818.334C1278.12 834.841 1259.41 853.203 1246.71 875.208C1241.27 884.634 1238.49 891.718 1234.38 906.579C1229.58 923.904 1225.07 935.849 1218.73 947.997C1204.92 974.46 1188.5 989.688 1166.41 996.504C1158.21 999.036 1143.69 999.037 1134.97 996.505C1119.42 991.987 1108.69 984.919 1090.81 967.415C1083.85 960.606 1075.2 952.733 1071.59 949.919C1041 926.093 1013 921.381 996.811 937.336C992.076 942.003 988.821 947.758 984.602 958.922C977.014 979.003 962.111 992.332 937.5 1001.05L930.444 1003.54L939.67 1012.17L948.898 1020.8L913.782 1053.53C894.469 1071.54 878.836 1086.42 879.041 1086.6C879.246 1086.78 882.909 1087.96 887.181 1089.23C922.853 1099.8 954.342 1099.39 976.306 1088.07C984.161 1084.02 993.97 1074.5 998.131 1066.9C1002.02 1059.8 1003.54 1055.16 1005.27 1045.18C1009.14 1022.8 1017.2 1009.71 1030.96 1003.44C1037.05 1000.67 1037.47 1000.59 1046.22 1000.61C1054.16 1000.62 1056.04 1000.9 1062.34 1002.99C1084.91 1010.46 1108.74 1030.11 1134.78 1062.71C1139.97 1069.2 1145.71 1076.41 1147.55 1078.71C1152.55 1085 1164.81 1096.6 1170.87 1100.78C1191.2 1114.79 1207.94 1114.58 1223.24 1100.11C1240.53 1083.75 1251.91 1051.93 1257.18 1005.16C1258.82 990.63 1260.25 982.896 1263.24 972.325C1283.24 901.587 1348.17 852.522 1436.65 841.294C1450.07 839.59 1478.64 838.978 1493.48 840.076C1515.99 841.742 1536.73 845.253 1561.18 851.533C1567.56 853.174 1583.09 857.093 1595.68 860.244C1630.6 868.976 1690.74 884.09 1704.02 887.469C1720.12 891.562 1738.38 895.561 1745.32 896.51C1772.05 900.17 1782.81 900.946 1808.28 901.049C1824.26 901.115 1839.68 900.373 1855.29 898.789C1863.38 897.968 1890.82 894.096 1898.63 892.673C1922.24 888.369 1960.32 877.01 1987.55 866.144C2027.29 850.289 2061.26 831.813 2089.14 810.886C2097.17 804.857 2122.6 782.989 2128.57 776.979C2137.68 767.812 2145.03 759.127 2193.84 699.903C2220.96 666.996 2247.95 634.241 2253.82 627.114C2272.46 604.501 2287.48 589.648 2306.32 575.197C2345.19 545.388 2393.23 525.579 2438.28 520.786C2442.55 520.331 2447.61 519.782 2449.52 519.565L2453 519.17V489.111V459.051L2447.48 459.133C2444.44 459.179 2438.1 459.657 2433.38 460.195ZM2440.33 532.64C2386.36 538.745 2333.68 564.253 2291.51 604.702C2277.84 617.815 2277.26 618.491 2232.21 673.227C2141.67 783.246 2147.05 776.971 2127.57 795.162C2098.78 822.048 2059.8 848.018 2024.06 864.136C1971.05 888.045 1927.96 901.016 1876.14 908.658C1849.59 912.575 1806.76 914.673 1782.93 913.224C1768.47 912.346 1748.31 910.029 1740.82 908.386C1720.85 904.009 1709.58 901.372 1693.8 897.386C1530.49 856.14 1533.43 856.833 1507.11 853.398C1494.79 851.792 1463.27 851.171 1449.73 852.269C1351.07 860.271 1281.44 917.345 1271.1 998.683C1267.05 1030.56 1265.73 1037.97 1261.26 1053.98C1250.79 1091.48 1233.35 1114.9 1210.97 1121.49C1203.57 1123.68 1192.9 1123.63 1185.22 1121.39C1167.05 1116.09 1151.74 1104.23 1133.56 1081.38C1117.79 1061.57 1110.14 1052.73 1101.2 1044C1071.02 1014.54 1044.9 1004.98 1030.71 1018.21C1023.95 1024.51 1020.85 1032.29 1016.81 1053.1C1010.62 1084.9 985.068 1104.91 946.053 1108.49C926.714 1110.26 903.705 1107.08 878.347 1099.12L868.287 1095.96L850.343 1112.67C840.473 1121.86 832.41 1129.56 832.426 1129.77C832.441 1129.99 835.477 1132.04 839.172 1134.34C842.867 1136.65 852.329 1143.02 860.199 1148.52C898.593 1175.32 927.538 1189.39 956.749 1195.44C967.88 1197.75 987.649 1197.98 995.93 1195.9C1010.88 1192.14 1022.28 1183.5 1028.94 1170.89C1033.99 1161.33 1035.79 1154.2 1037.26 1137.92C1038.96 1119.22 1040.99 1110.61 1045.85 1101.55C1049.28 1095.15 1054.86 1089.83 1061.17 1086.93C1065.99 1084.72 1067.38 1084.43 1073.18 1084.46C1094.89 1084.56 1121.4 1103.82 1151.92 1141.65C1158.78 1150.16 1171.36 1167.69 1183.79 1186.06C1200.45 1210.69 1220.45 1229.47 1235.15 1234.28C1241.73 1236.44 1249.63 1236.23 1254.96 1233.76C1268 1227.7 1279.23 1207.41 1285.3 1178.94C1289.82 1157.76 1291.52 1140.62 1292.74 1104.25C1293.76 1073.78 1295.89 1058.9 1302.17 1038.32C1318.57 984.603 1356.71 944.639 1409.05 926.313C1453.43 910.775 1506.85 911.067 1560.65 927.142C1573.83 931.082 1590.99 937.127 1618.17 947.405C1656.35 961.845 1697.81 977.362 1705.25 980.002C1709.75 981.597 1713.79 983.157 1714.24 983.469C1716.26 984.864 1766.91 1003.43 1777.2 1006.54C1811.89 1017.04 1844.83 1021.44 1885.14 1020.98C1938.54 1020.36 1991.95 1008.21 2041.44 985.421C2059.87 976.934 2084.12 963.61 2088.44 959.596C2089.05 959.029 2092.74 956.531 2096.64 954.044C2114.65 942.56 2142.98 917.477 2158.57 899.217C2167.68 888.553 2181.43 869.676 2187.71 859.202C2191.69 852.577 2196.52 844.962 2206.26 829.956C2209.29 825.29 2211.77 821.249 2211.78 820.976C2211.78 820.702 2214.79 815.9 2218.45 810.305C2222.11 804.71 2239.15 778.009 2256.33 750.97C2297.02 686.922 2298.42 684.862 2312.26 668.654C2320.03 659.561 2341.61 639.331 2350.79 632.542C2376.65 613.416 2408.39 599.311 2438.38 593.627C2444.05 592.552 2449.66 591.672 2450.85 591.672H2453V561.565V531.459L2451.16 531.54C2450.15 531.585 2445.27 532.08 2440.33 532.64ZM391.271 560.915C368.649 563.36 348.643 569.155 320.134 581.522C309.609 586.088 286.022 597.813 284.198 599.386C283.751 599.772 321.772 600.056 373.725 600.056H464.029L446.208 583.431L428.387 566.806L421.276 564.39C411.671 561.126 400.88 559.877 391.271 560.915ZM652.578 579.553C629.915 610.135 602.485 636.323 571.275 657.175L564.036 662.013L584.458 681.05L604.882 700.088L616.854 692.731C627.988 685.89 647.782 672.372 653.968 667.385L656.65 665.224L656.421 619.949L656.192 574.675L652.578 579.553ZM2441.14 605.398C2389.94 615.151 2342.95 646.49 2308.58 693.806C2303.39 700.958 2250.6 783.754 2239.58 802.037C2237.18 806.02 2233.86 811.209 2232.19 813.568C2227.99 819.53 2212.74 843.57 2211.82 845.666C2211.41 846.613 2209.3 850.042 2207.14 853.288C2204.98 856.533 2199.79 864.421 2195.61 870.818C2176.68 899.833 2152.09 927.173 2127.14 946.958C2123.11 950.16 2117.41 954.692 2114.49 957.029C2105.29 964.387 2074.89 982.856 2055.62 992.798C2046.26 997.622 2025.28 1006.32 2014.73 1009.75C2009.11 1011.57 2000.83 1014.3 1996.34 1015.8C1991.84 1017.31 1988.16 1018.45 1988.16 1018.33C1988.16 1018.22 1986.14 1018.72 1983.66 1019.44C1971.79 1022.92 1948.27 1027.44 1926.84 1030.37C1877.52 1037.11 1822.67 1032.83 1774.68 1018.5C1768.87 1016.76 1751.06 1010.53 1735.09 1004.64C1719.13 998.746 1704.04 993.227 1701.57 992.373C1699.1 991.518 1694.77 989.838 1691.96 988.639C1685.49 985.879 1619.63 961.057 1612.22 958.587C1604.66 956.065 1583.78 948.235 1577.29 945.485C1563.29 939.558 1534.85 932.121 1515.55 929.343C1453.84 920.456 1400.63 933.756 1361.67 967.81C1330.17 995.334 1310.95 1035.48 1306.75 1082.52C1306.28 1087.76 1305.69 1100.28 1305.43 1110.34C1303.77 1175.61 1292.63 1217.56 1271.83 1236.95C1264.58 1243.71 1256.44 1247.33 1247.48 1247.77C1239.1 1248.18 1233.33 1247.09 1225.59 1243.64C1206.67 1235.2 1189.52 1217.66 1166.05 1182.75C1140.05 1144.07 1116.26 1117.67 1095.92 1104.92C1078.91 1094.26 1067.45 1093.65 1060.06 1103.01C1054.42 1110.16 1052.07 1118.64 1050.31 1138.24C1049 1152.86 1047.78 1159.25 1044.67 1167.68C1038.5 1184.44 1027.89 1195.89 1011.87 1203.04C985.153 1214.97 950.023 1210.82 906.805 1190.64C889.145 1182.39 876.096 1174.67 853.996 1159.38C844.59 1152.87 833.654 1145.54 829.692 1143.09L822.489 1138.64L750.788 1205.47L679.088 1272.31H1566.04H2453V938.089V603.867L2450.75 603.931C2449.52 603.967 2445.19 604.626 2441.14 605.398ZM0.0205254 620.432V629.375L9.01478 621.017C13.9616 616.42 18.009 612.395 18.009 612.074C18.009 611.752 13.9616 611.489 9.01478 611.489H0.0205254V620.432ZM12.9567 623.462L0.0205254 635.436V679.846V724.255L51.7375 724.211L103.454 724.169L115.856 711.78L128.257 699.391L81.1029 655.44L33.9485 611.489H29.9199H25.8921L12.9567 623.462ZM86.6352 653.737L131.952 695.985L143.401 685.702C165.385 665.959 191.131 645.253 212.549 630.09L223.208 622.545L217.317 617.017L211.426 611.489H126.372H41.3181L86.6352 653.737ZM230.601 612.133C230.601 612.488 231.305 613.372 232.166 614.098C233.641 615.342 233.857 615.344 235.846 614.129C238.91 612.257 238.455 611.489 234.28 611.489C232.256 611.489 230.601 611.779 230.601 612.133ZM260.019 613.597C253.625 617.203 243.683 623.707 243.683 624.285C243.683 625.041 282.37 661.032 283.183 661.032C283.539 661.032 290.343 657.837 298.303 653.933C333.397 636.719 362.979 625.408 390.443 618.702C405.891 614.93 415.887 613.572 428.474 613.533C437.912 613.504 440.818 613.805 448.507 615.613C453.454 616.776 460.193 617.919 463.482 618.152L469.464 618.576L469.206 615.223L468.948 611.87L366.332 611.691L263.716 611.512L260.019 613.597ZM414.195 626.034C385.608 629.69 345.019 644.123 300.223 666.563L292.576 670.393L314.117 690.484C325.965 701.534 336.089 710.574 336.614 710.574C337.14 710.574 343.03 708.394 349.704 705.73C374.7 695.75 401.886 686.955 421.541 682.489C437.802 678.794 446.92 677.561 458.522 677.487L469.354 677.419L469.356 654.087L469.357 630.754L462.298 630.22C458.416 629.926 451.702 628.811 447.376 627.741C438.458 625.536 423.931 624.789 414.195 626.034ZM485.506 628L481.622 629.108V653.835V678.562H483.931C492.94 678.562 512.641 673.497 525.799 667.798L533.243 664.574L512.958 645.654C499.208 632.828 492.144 626.759 491.032 626.812C490.128 626.856 487.642 627.391 485.506 628ZM223.321 637.762C198.794 655.138 177.055 672.535 152.142 694.724L141.14 704.523L151.721 714.409L162.302 724.294H171.936H181.57L191.162 717.557C213.504 701.867 240.666 684.964 268.498 669.43L271.646 667.673L252.152 649.49C241.43 639.489 232.607 631.306 232.546 631.306C232.484 631.306 228.333 634.212 223.321 637.762ZM538.449 675.669C525.319 682.142 503.956 688.47 489.855 690.063L481.622 690.993V715.721V740.45L491.23 739.932C514.737 738.663 542.023 730.828 572.715 716.531C578.153 713.998 582.771 711.779 582.975 711.602C583.508 711.138 543.533 673.982 542.544 674.022C542.091 674.042 540.248 674.782 538.449 675.669ZM266.578 684.742C251.043 693.575 230.054 706.484 214.496 716.775L203.705 723.913L254.868 724.109L306.03 724.305L314.97 720.348L323.909 716.39L302.813 696.714C291.21 685.892 281.345 677.045 280.892 677.054C280.439 677.064 273.998 680.523 266.578 684.742ZM648.016 687.02C643.968 689.943 634.71 696.043 627.443 700.575L614.228 708.815L635.415 728.554L656.601 748.292V714.951C656.601 696.614 656.326 681.632 655.988 681.658C655.65 681.684 652.063 684.097 648.016 687.02ZM442.783 690.438C425.597 692.907 399.659 700.083 374.1 709.44C360.461 714.432 347.439 719.547 346.766 720.176C346.55 720.377 356.783 730.249 369.507 742.116L392.64 763.69L409.127 758.419C427.043 752.69 451.895 745.858 462.612 743.714L469.357 742.366V716.269V690.173L467.517 689.713C464.362 688.925 450.482 689.332 442.783 690.438ZM128.877 716.372L120.776 724.294H137.857H154.938L146.382 716.291C141.676 711.889 137.635 708.324 137.402 708.369C137.169 708.413 133.333 712.015 128.877 716.372ZM577.767 727.388C543.364 743.342 518.002 750.467 489.594 752.162L481.622 752.637V781.229C481.622 807.54 481.73 809.783 482.978 809.338C485.919 808.286 499.122 805.015 513.579 801.758C546.266 794.393 585.719 781.623 634.044 762.765L637.242 761.518L615.243 741C603.144 729.716 593.058 720.508 592.83 720.539C592.601 720.57 585.823 723.652 577.767 727.388ZM0.0205254 740.099V751.332L11.8766 740.3C18.3974 734.232 23.7327 729.178 23.7327 729.067C23.7327 728.957 18.3974 728.867 11.8766 728.867H0.0205254V740.099ZM51.9378 744.107L68.2714 759.347L70.4079 757.255C73.2902 754.431 93.9582 733.542 96.4422 730.942L98.4251 728.867H67.0147H35.6043L51.9378 744.107ZM96.9541 748.398L77.5159 767.929L88.4324 778.126C94.4365 783.735 99.5812 788.236 99.865 788.13C100.149 788.024 108.8 781.02 119.088 772.566C135.468 759.109 153 745.183 163.214 737.517L166.414 735.115L163.182 731.991L159.95 728.867H138.171H116.392L96.9541 748.398ZM169.095 730.56L170.911 732.254L172.728 730.56L174.545 728.867H170.911H167.278L169.095 730.56ZM188.232 734.774L179.924 740.681L196.465 756.115C205.562 764.604 213.244 771.55 213.534 771.55C213.825 771.55 220.636 767.903 228.668 763.447C242.041 756.029 267.484 742.832 287.569 732.895L295.605 728.919L246.072 728.893L196.541 728.867L188.232 734.774ZM306.058 737.966C278.019 751.085 225.12 778.479 223.704 780.615C223.499 780.924 230.12 787.497 238.416 795.222L253.501 809.267L295.969 769.685C319.327 747.915 338.253 729.825 338.027 729.485C337.802 729.145 334.892 728.867 331.562 728.867H325.507L306.058 737.966ZM299.684 773.082L257.2 812.69L258.915 814.289L260.631 815.888L264.627 814.017C272.23 810.456 302.231 797.911 322.587 789.779L343.029 781.614L343.246 758.148C343.364 745.242 343.17 734.41 342.815 734.079C342.459 733.747 323.05 751.299 299.684 773.082ZM348.344 759.172C348.344 770.172 348.594 779.172 348.9 779.172C349.44 779.172 378.831 768.531 379.18 768.21C379.277 768.121 372.377 761.551 363.849 753.61L348.344 739.172V759.172ZM12.471 751.941L0.00253684 763.582L0.215946 795.659L0.429355 827.737L12.8987 815.161L25.368 802.584V771.442C25.368 754.313 25.2715 740.3 25.1538 740.3C25.036 740.3 19.3287 745.538 12.471 751.941ZM34.3622 766.595C34.3622 781.058 34.5078 792.891 34.6852 792.891C34.8635 792.891 41.0793 786.785 48.4988 779.322L61.9885 765.754L48.9199 753.027C41.7318 746.027 35.516 740.3 35.1063 740.3C34.6738 740.3 34.3622 751.297 34.3622 766.595ZM163.091 753.391C152.663 761.316 141.171 770.572 114.05 792.887L108.959 797.075L116.16 804.32C120.121 808.305 125.719 813.726 128.6 816.368L133.838 821.172L149.55 810.889C162.985 802.097 186.403 787.64 203.948 777.309L208.776 774.467L192.509 759.289C183.562 750.941 176.031 744.111 175.772 744.111C175.514 744.111 169.808 748.287 163.091 753.391ZM455.048 757.832C442.886 760.762 404.902 771.979 403.758 772.978C403.43 773.264 413.981 783.579 427.204 795.899L451.245 818.299L457.643 816.552C461.163 815.591 465.238 814.351 466.7 813.796L469.357 812.786V783.784C469.357 761.064 469.136 754.792 468.335 754.829C467.773 754.855 461.794 756.207 455.048 757.832ZM640.657 773.169C601.054 789.271 545.747 807.261 516.782 813.461C512.509 814.376 502.85 816.696 495.318 818.616L481.622 822.108V834.375V846.642L495.77 859.814L509.918 872.986L517.234 870.377C521.257 868.942 528.421 866.224 533.153 864.336C558.693 854.147 601.988 841.511 646.789 831.171L656.192 829.001L656.408 804.309L656.624 779.619L651.937 775.203C649.358 772.774 647.054 770.8 646.815 770.815C646.576 770.83 643.805 771.89 640.657 773.169ZM52.5552 793.064L34.3622 811.486V826.642C34.3622 835.036 34.6828 841.685 35.081 841.544C35.4759 841.405 48.2379 831.001 63.4415 818.424C78.6442 805.848 91.475 795.311 91.9541 795.008C92.4741 794.679 88.5518 790.461 82.2068 784.527C76.3671 779.066 71.3998 774.608 71.1684 774.62C70.937 774.632 62.5609 782.932 52.5552 793.064ZM375.735 782.566C368.54 785.204 359.525 788.541 355.703 789.98L348.752 792.598L348.538 821.982L348.325 851.365L360.803 847.2C377.743 841.545 408.735 831.551 420.706 827.883C426.103 826.229 432.125 824.324 434.088 823.649L437.659 822.423L413.653 800.035C400.449 787.722 389.46 777.675 389.232 777.707C389.004 777.741 382.931 779.927 375.735 782.566ZM207.646 789.617C186.869 801.624 144.738 828.35 144.198 829.863C144.047 830.286 150.307 836.575 158.109 843.838L172.295 857.046L203.287 842.138L234.28 827.231L242.036 819.966L249.791 812.7L234.276 798.223C225.743 790.26 218.546 783.745 218.283 783.745C218.02 783.745 213.233 786.387 207.646 789.617ZM324.978 801.97C301.465 811.516 271.515 824.238 271.107 824.855C270.914 825.144 280.028 833.989 291.358 844.51L311.958 863.641L327.698 858.27L343.438 852.898V824.038C343.438 801.424 343.216 795.191 342.416 795.242C341.854 795.277 334.007 798.305 324.978 801.97ZM679.496 812.58C679.496 823.328 679.608 824.213 680.927 823.854C681.713 823.641 686.221 822.717 690.943 821.802C695.665 820.886 699.608 820.078 699.705 820.006C699.802 819.934 695.295 815.609 689.689 810.395L679.496 800.917V812.58ZM68.0907 830.761L34.3622 858.604V872.675V886.746L41.1079 882.339C44.8185 879.915 52.8209 874.643 58.892 870.622C64.9632 866.601 81.7145 855.558 96.1176 846.082C110.521 836.606 123.215 828.152 124.327 827.297L126.349 825.741L114.084 814.329L101.819 802.917L68.0907 830.761ZM250.582 818.895L248.18 821.27L251.684 819.628C253.611 818.724 254.969 817.655 254.702 817.252C253.915 816.065 253.123 816.381 250.582 818.895ZM12.4032 833.478L0.0663143 845.863L0.0434198 858.337L0.0205254 870.812L3.09329 868.246C4.78421 866.835 10.4874 862.113 15.767 857.754L25.368 849.826V835.459C25.368 827.557 25.2265 821.092 25.054 821.092C24.8815 821.092 19.1881 826.666 12.4032 833.478ZM464.86 826.971C461.855 827.645 461.981 828.381 465.681 831.766L469.357 835.129V830.778C469.357 826.174 469.16 826.007 464.86 826.971ZM241.639 837.802L218.745 848.337L204.868 861.377L190.992 874.418L194.225 877.671C202.807 886.305 214.719 897.311 215.481 897.311C215.951 897.311 224.788 894.276 235.119 890.567C245.451 886.857 265.494 879.78 279.66 874.84C293.826 869.9 305.584 865.719 305.788 865.55C306.189 865.217 265.636 827.165 264.949 827.228C264.72 827.249 254.231 832.007 241.639 837.802ZM699.528 832.493C693.682 833.66 686.784 835.027 684.197 835.53L679.496 836.444V865.821V895.198L682.971 894.758C684.882 894.516 693.437 894.096 701.981 893.826C720.833 893.229 746.053 894.436 767.801 896.974C776.569 897.998 783.926 898.836 784.151 898.836C784.375 898.836 768.003 883.401 747.77 864.537C727.537 845.673 710.797 830.268 710.57 830.305C710.344 830.341 705.375 831.326 699.528 832.493ZM423.977 839.412C412.285 843.152 390.484 850.226 375.531 855.132L348.344 864.052V880.86V897.67L357.796 906.504L367.249 915.338L378.033 912.361C390.792 908.839 445.11 893.268 459.136 889.113L468.948 886.205L469.169 869.109L469.389 852.012L458.96 842.269C452.274 836.022 447.939 832.541 446.883 832.568C445.977 832.593 435.67 835.672 423.977 839.412ZM132.89 836.623C131.541 837.605 110.2 851.717 85.466 867.984C60.7318 884.25 39.1153 898.561 37.4285 899.785L34.3622 902.013V914.525C34.3622 921.407 34.4832 927.037 34.6312 927.037C34.7792 927.037 63.5715 912.461 98.6131 894.645C133.656 876.83 162.694 862.119 163.144 861.954C163.593 861.789 157.522 855.62 149.652 848.246L135.343 834.838L132.89 836.623ZM638.204 845.567C595.652 855.924 564.885 865.129 537.418 875.723L520.034 882.428L541.126 902.09L562.218 921.75L570.87 917.946C589.738 909.65 621.286 901.644 649.447 898.005L656.601 897.08V869.376C656.601 843.477 656.508 841.675 655.17 841.728C654.384 841.76 646.749 843.488 638.204 845.567ZM193.016 860.756C187.86 863.268 183.35 865.594 182.995 865.926C182.639 866.257 183.465 867.526 184.83 868.745L187.312 870.962L195.255 863.558C199.624 859.485 203.017 856.161 202.795 856.171C202.573 856.18 198.172 858.244 193.016 860.756ZM481.622 872.747C481.622 877.873 481.742 882.068 481.888 882.068C482.54 882.068 493.943 878.303 495.067 877.717C496.064 877.196 494.822 875.674 488.971 870.244L481.622 863.426V872.747ZM12.4898 876.652L0.0205254 886.939V898.176V909.413L12.3647 901.327C19.1538 896.879 24.8659 892.858 25.0589 892.39C25.2519 891.922 25.3075 885.875 25.184 878.952L24.9591 866.364L12.4898 876.652ZM332.559 869.443C327.25 871.262 322.756 872.891 322.571 873.064C322.386 873.236 327.005 877.814 332.836 883.237L343.438 893.097V879.58C343.438 872.145 343.162 866.078 342.824 866.098C342.487 866.119 337.868 867.624 332.559 869.443ZM103.863 905.785C65.8626 925.099 34.6689 940.993 34.5446 941.104C34.4203 941.214 34.4203 946.461 34.5446 952.762L34.7711 964.22L47.036 959.697C53.7817 957.21 73.2828 950.021 90.3719 943.721L121.443 932.266L151.07 904.705L180.697 877.146L177.27 873.89C175.384 872.1 173.642 870.642 173.399 870.651C173.155 870.661 141.864 886.471 103.863 905.785ZM277.616 888.478C232.74 904.263 226.22 906.588 225.732 906.979C225.088 907.496 262.828 942.281 264.033 942.281C265.028 942.281 296.237 934.282 331.99 924.865L343.029 921.957L343.257 910.999L343.484 900.04L330.183 887.624C322.868 880.795 316.51 875.217 316.055 875.228C315.6 875.238 298.303 881.201 277.616 888.478ZM159.461 903.793C145.752 916.577 134.757 927.037 135.028 927.037C135.617 927.037 203.588 901.97 205.035 901.218C205.694 900.876 202.288 897.201 195.216 890.622L184.386 880.548L159.461 903.793ZM494.296 890.81L482.031 894.843L481.818 924.969L481.603 955.094L485.088 954.094C493.024 951.816 512.862 945.293 520.87 942.329C530.737 938.676 549.01 930.398 550.229 929.029C550.83 928.352 545.069 922.546 528.807 907.44L506.561 886.776L494.296 890.81ZM464.86 899.977C454.296 903.174 404.551 917.553 392.231 920.97L377.656 925.013L401.74 947.464L425.825 969.915L446.16 964.756C457.344 961.919 467.14 959.291 467.926 958.916C469.252 958.283 469.357 956.05 469.357 928.535C469.357 912.2 469.082 898.869 468.744 898.911C468.406 898.952 466.659 899.432 464.86 899.977ZM348.344 912.382C348.344 916.67 348.619 920.175 348.957 920.173C349.295 920.17 352.251 919.399 355.528 918.458L361.485 916.747L354.914 910.667L348.344 904.588V912.382ZM689.717 906.231C686.119 906.357 682.347 906.638 681.336 906.855L679.496 907.249V933.432V959.616L691.147 960.144C730.366 961.92 761.312 967.752 798.465 980.367C816.28 986.416 822.312 988.185 834.851 991.037C848.198 994.074 864.362 996.214 878.596 996.828L890.043 997.321L844.367 954.66L798.692 911.999L791.219 911.493C787.11 911.214 776.388 910.141 767.394 909.109C740.604 906.035 718.604 905.22 689.717 906.231ZM12.4571 916.097L0.0205254 924.212V934.432V944.65L8.81037 940.244C13.6452 937.82 19.3451 934.972 21.4776 933.914L25.3541 931.991L25.3614 919.987C25.3647 913.384 25.2617 907.982 25.1309 907.982C25.0008 907.982 19.2977 911.634 12.4571 916.097ZM639.839 911.472C625.603 913.773 610.691 917.112 598.956 920.624C589.083 923.58 572.382 929.933 572.382 930.734C572.382 931.012 581.516 939.749 592.679 950.149L612.975 969.057L620.275 967.153C628.001 965.137 642.027 962.575 650.878 961.563L656.192 960.954L656.408 935.23L656.623 909.506L653.955 909.564C652.487 909.596 646.135 910.455 639.839 911.472ZM195.441 917.852C184.423 921.939 160.889 930.64 143.144 937.187L110.879 949.09L89.0048 969.47C76.9746 980.678 67.2542 989.964 67.4039 990.104C67.8806 990.547 249.592 946.497 251.596 945.452C252.303 945.083 246.591 939.289 234.059 927.663L215.474 910.423L195.441 917.852ZM358.973 930.002L348.752 932.811L348.537 959.704C348.335 985.088 348.403 986.574 349.764 986.193C350.557 985.971 357.461 984.547 365.106 983.028C379.006 980.265 409.557 973.676 416.213 972.006L419.744 971.119L396.11 949.078C380.034 934.086 371.95 927.062 370.834 927.115C369.932 927.157 364.595 928.456 358.973 930.002ZM308.278 943.492C290.065 948.276 274.807 952.301 274.372 952.435C273.937 952.57 283.136 961.625 294.814 972.557L316.046 992.434L327.902 990.25C334.423 989.049 340.586 987.876 341.598 987.643L343.438 987.221V960.94C343.438 940.387 343.215 934.673 342.416 934.726C341.854 934.763 326.492 938.708 308.278 943.492ZM557.664 938.931C548.502 944.93 522.381 955.301 496.136 963.358L481.623 967.814V997.349C481.622 1018.99 481.872 1026.88 482.556 1026.88C484.159 1026.88 509.196 1020.05 517.898 1017.23C544.091 1008.76 562.093 1000.13 572.791 990.924C579.508 985.142 587.426 979.765 593.916 976.579C596.906 975.112 599.355 973.737 599.359 973.525C599.362 973.312 590.627 965.019 579.946 955.097L560.526 937.057L557.664 938.931ZM12.081 952.307L0.0205254 958.43V967.505C0.0205254 972.496 0.264188 976.579 0.562634 976.579C0.86108 976.579 6.56262 974.607 13.2339 972.197L25.3623 967.814L25.3655 956.953C25.3663 950.979 25.0924 946.112 24.7547 946.138C24.417 946.163 18.7147 948.94 12.081 952.307ZM94.0514 955.259C92.0277 956.024 77.8617 961.269 62.5715 966.916L34.7711 977.185L34.5438 987.553C34.3925 994.447 34.6051 997.921 35.1783 997.921C35.6525 997.921 40.5715 996.863 46.1096 995.57L56.179 993.22L77.3581 973.467C89.0064 962.602 98.3556 953.749 98.134 953.791C97.9124 953.835 96.0751 954.495 94.0514 955.259ZM255.13 957.198C244.167 960.118 103.262 994.369 57.0368 1005.35L48.2306 1007.44L42.3393 1012.97L36.4473 1018.5H80.8699H125.293L177.333 1012.05C205.956 1008.5 234.525 1004.89 240.821 1004.04C261.84 1001.18 302.955 994.694 303.62 994.13C304.393 993.473 264.39 955.212 263.015 955.292C262.501 955.323 258.953 956.18 255.13 957.198ZM453.822 975.192C445.952 977.268 438.864 979.202 438.071 979.489C436.914 979.906 439.855 983.013 452.993 995.246L469.357 1010.48V990.864C469.357 980.073 469.082 971.283 468.744 971.33C468.406 971.377 461.692 973.115 453.822 975.192ZM679.867 972.966C679.65 973.494 679.569 984.727 679.688 997.928L679.905 1021.93L690.943 1022.43C733.931 1024.36 782.319 1038.87 828.319 1063.62C835.744 1067.62 844.908 1072.34 848.683 1074.11L855.547 1077.33L885.667 1049.26L915.786 1021.19L909.047 1014.81L902.308 1008.44L893.679 1008.87C869.244 1010.09 835.462 1005.17 808.686 996.49C777.239 986.297 767.128 983.245 757.991 981.185C738.082 976.695 719.801 974.108 698.711 972.794C682.649 971.794 680.341 971.814 679.867 972.966ZM641.883 975.058C630.494 976.895 624.808 978.105 624.356 978.787C624.153 979.094 631.324 986.18 640.293 994.533L656.601 1009.72V991.626V973.531L653.535 973.602C651.849 973.641 646.605 974.296 641.883 975.058ZM12.081 985.492C5.89786 987.794 0.838185 989.91 0.838185 990.195C0.838185 990.48 3.87416 993.516 7.58388 996.941L14.3296 1003.17L19.8488 1001.92L25.368 1000.68V990.915C25.368 983.572 25.1145 981.172 24.3459 981.231C23.7842 981.274 18.265 983.191 12.081 985.492ZM415.721 984.597C403.735 987.416 377.158 993.063 354.68 997.566L348.344 998.836V1023.91C348.344 1037.7 348.619 1048.99 348.957 1048.99C350.017 1048.99 375.328 1045.99 384.729 1044.75C400.767 1042.63 422.741 1039.1 441.966 1035.55L460.772 1032.08L465.065 1028.17C468.998 1024.6 469.357 1023.98 469.357 1020.81V1017.34L449.931 999.249C439.248 989.296 430.325 981.188 430.103 981.23C429.882 981.274 423.41 982.788 415.721 984.597ZM601.401 986.701C593.188 990.735 590.785 992.32 582.388 999.249C571.35 1008.36 559.902 1014.53 539.679 1022.28C525.103 1027.86 487.206 1039.08 482.909 1039.08C481.761 1039.08 481.622 1042.21 481.622 1068.11V1097.14L485.097 1096.62C505.288 1093.61 537.696 1085.04 555.62 1077.98C575.659 1070.09 586.407 1062.86 598.017 1049.48C606.09 1040.17 621.814 1031.42 638.504 1026.96C643.579 1025.61 647.774 1024 648.958 1022.96L650.935 1021.23L630.676 1002.34C619.533 991.943 609.861 983.449 609.184 983.461C608.505 983.473 605.003 984.932 601.401 986.701ZM0.0205254 1001.53V1006.98L4.31324 1005.8C6.67464 1005.16 8.68854 1004.55 8.78993 1004.47C8.89132 1004.38 6.96 1002.46 4.49721 1000.19L0.0205254 996.067V1001.53ZM334.986 1001.25L326.944 1002.72L334.986 1010.25L343.029 1017.78L343.272 1013.18C343.406 1010.66 343.406 1006.61 343.272 1004.18L343.029 999.776L334.986 1001.25ZM310.731 1005.52C304.884 1006.66 257.447 1014.01 242.048 1016.15L226.103 1018.37L278.417 1018.44L330.73 1018.5L323.405 1011.64C319.376 1007.87 315.52 1004.82 314.837 1004.87C314.152 1004.92 312.305 1005.21 310.731 1005.52ZM35.2846 1010.8C34.668 1011.17 34.3091 1011.87 34.4882 1012.37C34.6975 1012.96 35.3565 1012.72 36.35 1011.7C37.9109 1010.09 37.3246 1009.6 35.2846 1010.8ZM11.8766 1016.29C8.7286 1017.09 5.78503 1017.88 5.33531 1018.06C4.8856 1018.24 8.90522 1018.41 14.2674 1018.44L24.018 1018.5L22.0973 1016.59C19.8643 1014.38 19.4677 1014.37 11.8766 1016.29ZM0.0205254 1028.87C0.0205254 1034.5 0.0753085 1034.66 1.86026 1034.26C2.87171 1034.04 5.90768 1033.61 8.60595 1033.31C13.2306 1032.79 13.8169 1032.49 18.8267 1027.93L24.1415 1023.1L12.081 1023.09L0.0205254 1023.07V1028.87ZM38.4505 1025.74C40.0752 1027.3 42.0229 1028.41 43.1513 1028.41C45.0932 1028.41 81.9607 1024.02 84.2395 1023.52C84.9141 1023.37 74.2632 1023.21 60.5715 1023.16L35.677 1023.07L38.4505 1025.74ZM119.399 1031.3C83.6467 1035.74 54.2273 1039.49 54.022 1039.63C53.8176 1039.78 58.0596 1044.01 63.4497 1049.04L73.2493 1058.17L153.356 1057.04C250.895 1055.66 282.11 1054.83 299.015 1053.13L303.243 1052.7L318.516 1037.89L333.79 1023.07L259.097 1023.15L184.403 1023.24L119.399 1031.3ZM329.986 1039.04C322.811 1045.74 317.108 1051.37 317.312 1051.55C317.671 1051.87 342.801 1049.78 343.256 1049.39C343.38 1049.29 343.38 1044.17 343.256 1038.03L343.029 1026.86L329.986 1039.04ZM23.749 1030.3C23.1039 1031.02 23.0417 1031.46 23.5847 1031.46C24.5724 1031.46 25.7245 1030.01 25.1578 1029.48C24.9518 1029.29 24.3181 1029.66 23.749 1030.3ZM679.986 1034.3C679.717 1034.55 679.496 1045.51 679.496 1058.64V1082.52L690.739 1082.53C722.894 1082.54 766.276 1094.64 803.675 1114.04C807.44 1115.99 810.939 1117.59 811.451 1117.59C811.962 1117.59 819.881 1110.59 829.05 1102.03L845.72 1086.48L842.125 1084.79C840.148 1083.86 832.46 1079.82 825.039 1075.81C788.823 1056.26 753.286 1043.5 718.622 1037.62C706.291 1035.52 681.005 1033.35 679.986 1034.3ZM586.691 1097.77C550.267 1131.72 520.93 1159.51 521.499 1159.51C523.336 1159.51 538.206 1156.38 547.035 1154.14C573.249 1147.48 592.767 1138.75 605.74 1127.87C608.123 1125.87 612.772 1120.41 616.072 1115.73C625.789 1101.96 635.495 1094.17 649.511 1088.9L656.192 1086.39L656.408 1061.21L656.623 1036.03H654.771C653.406 1036.03 635.478 1052.29 586.691 1097.77ZM40.0859 1041.11C33.9182 1042.02 34.3622 1041.28 34.3622 1050.64V1059.13L45.5298 1058.63C51.6721 1058.36 58.9329 1058.13 61.6655 1058.13H66.6328L57.2567 1049.37C47.2502 1040.01 47.3213 1040.05 40.0859 1041.11ZM16.1301 1044.37C7.54136 1045.66 7.20203 1045.78 3.66075 1049.02C0.286265 1052.11 0.0205254 1052.64 0.0205254 1056.28V1060.2L10.0369 1059.9C15.5462 1059.73 21.2486 1059.42 22.7106 1059.21L25.368 1058.83V1050.86C25.368 1046.48 25.2756 1042.93 25.1636 1042.97C25.0515 1043.02 20.9861 1043.65 16.1301 1044.37ZM459.636 1044.41L453.594 1045.77L420.797 1076.41L388 1107.05L396.994 1106.56C416.653 1105.48 450.173 1102.19 464.247 1099.95L469.357 1099.14V1071.01V1042.89L467.517 1042.97C466.506 1043.01 462.959 1043.66 459.636 1044.41ZM619.745 1047.7C613.535 1051.74 609.632 1055.18 604.374 1061.24C596.029 1070.86 585.926 1077.64 568.202 1085.5C547.583 1094.64 520.551 1102.33 488.777 1108.11L481.622 1109.41V1137.21V1165.01L484.28 1164.58C485.742 1164.34 489.556 1163.92 492.758 1163.64L498.578 1163.14L561.848 1104.16C596.646 1071.72 624.75 1045.2 624.302 1045.22C623.853 1045.24 621.803 1046.36 619.745 1047.7ZM429.003 1050.16C409.937 1053.62 377.503 1058.16 353.045 1060.79L348.344 1061.29V1084.87V1108.44L364.084 1107.97L379.824 1107.51L412.119 1077.48C429.883 1060.97 444.049 1047.51 443.599 1047.56C443.15 1047.61 436.582 1048.78 429.003 1050.16ZM320.134 1063.61L302.963 1065.05L281.936 1085.03L260.908 1105.01L265.583 1105.51C273.382 1106.34 300.941 1107.62 322.792 1108.16L343.438 1108.67V1085.31V1061.95L340.371 1062.06C338.685 1062.12 329.578 1062.82 320.134 1063.61ZM285.793 1066.15C283.641 1066.86 229.302 1068.09 168.05 1068.82C130.723 1069.26 97.098 1069.81 93.327 1070.05L86.4709 1070.48L97.8224 1081.09C104.066 1086.92 109.728 1091.83 110.403 1092.01C111.078 1092.18 142.456 1095 180.131 1098.26L248.63 1104.19L261.34 1092.4C283.833 1071.55 290.228 1064.68 285.793 1066.15ZM40.2608 1070.9L34.3042 1071.16L34.5372 1078.56L34.7711 1085.95L43.7653 1086.6C48.7122 1086.96 63.7056 1088.16 77.085 1089.27C90.4643 1090.39 101.41 1091.12 101.41 1090.9C101.41 1090.68 96.5297 1085.97 90.5657 1080.42L79.7203 1070.33L62.9697 1070.48C53.7563 1070.56 43.5372 1070.75 40.2608 1070.9ZM11.0589 1071.88C5.21267 1072.17 0.337777 1072.45 0.22494 1072.51C0.112103 1072.57 0.0205254 1075.18 0.0205254 1078.32C0.0205254 1085.08 -1.16753 1084.52 14.534 1085.15L25.368 1085.58V1078.34C25.368 1071.29 25.3173 1071.1 23.5282 1071.23C22.516 1071.3 16.9052 1071.6 11.0589 1071.88ZM679.496 1167.51C679.496 1207.54 679.773 1240.3 680.111 1240.3C680.885 1240.3 801.327 1128.06 801.327 1127.34C801.327 1126.52 788.894 1120.4 776.988 1115.35C744.613 1101.63 715.505 1094.72 690.098 1094.72H679.496V1167.51ZM0.0205254 1101.62V1106.85L2.67792 1107.27C6.83081 1107.94 23.0769 1109.96 24.2838 1109.96C25.0932 1109.96 25.368 1108.43 25.368 1103.93V1097.9L19.4399 1097.48C16.1791 1097.25 10.4759 1096.91 6.76622 1096.72L0.0205254 1096.39V1101.62ZM34.3622 1105.01C34.3622 1108.57 34.4849 1111.49 34.6353 1111.49C37.7326 1111.49 108.875 1123.75 138.001 1129.31C140.811 1129.84 143.111 1130.08 143.111 1129.83C143.111 1129.58 137.131 1123.85 129.824 1117.08L116.537 1104.78L97.7309 1103.14C65.1962 1100.32 42.2706 1098.54 38.2461 1098.54L34.3622 1098.53V1105.01ZM648.834 1102.55C640.619 1106.57 632.117 1114.28 627.197 1122.16C618.292 1136.42 598.893 1149.52 573.609 1158.36C556.075 1164.49 529.792 1170.78 511.467 1173.23L504.925 1174.1L493.274 1184.9L481.622 1195.69V1234V1272.31H564.025H646.428L651.515 1267.53L656.601 1262.74V1181.02C656.601 1136.07 656.326 1099.3 655.988 1099.32C655.65 1099.33 652.431 1100.78 648.834 1102.55ZM125.122 1106.04C125.122 1106.32 131.285 1112.27 138.818 1119.26L152.514 1131.97L179.985 1136.97C195.094 1139.73 207.81 1141.98 208.243 1141.98C209.035 1141.98 237.238 1115.9 236.843 1115.53C236.727 1115.42 212.922 1113.28 183.943 1110.77C154.965 1108.26 129.876 1106.05 128.189 1105.87C126.503 1105.69 125.122 1105.76 125.122 1106.04ZM462.407 1112.31C446.668 1114.81 415.42 1117.73 389.635 1119.13L374.1 1119.97L361.222 1131.92L348.344 1143.86V1153.87V1163.87L353.454 1164.33C374.348 1166.24 387.702 1166.71 421.933 1166.73C442.845 1166.74 462.069 1166.46 464.656 1166.12L469.357 1165.49V1138.49C469.357 1113.25 469.264 1111.49 467.926 1111.58C467.14 1111.63 464.656 1111.96 462.407 1112.31ZM234.083 1130.42C221.627 1142.51 220.198 1144.15 221.818 1144.52C234.327 1147.36 293.901 1157.49 312.646 1159.97L322.33 1161.25L332.883 1151.43L343.438 1141.62V1131.12V1120.63L337.101 1120.62C326.207 1120.61 285.477 1119.12 274.345 1118.33C268.499 1117.92 260.22 1117.39 255.948 1117.16L248.18 1116.75L234.083 1130.42ZM0.0205254 1195.63V1272.31H12.6943H25.368V1197.33V1122.36L14.534 1121.05C8.57488 1120.33 2.87252 1119.56 1.86026 1119.34L0.0205254 1118.94V1195.63ZM353.045 1120.43L348.344 1120.71V1128.85V1137L357.338 1128.64C362.285 1124.04 366.332 1120.19 366.332 1120.08C366.332 1119.85 360.242 1120.01 353.045 1120.43ZM34.3622 1197.94V1272.31H53.502H72.6426L127.957 1219.58L183.272 1166.84L171.95 1156.29L160.629 1145.74L129.18 1140C83.4545 1131.66 65.7914 1128.56 51.5331 1126.37C44.5625 1125.29 37.8479 1124.22 36.6108 1123.99L34.3622 1123.56V1197.94ZM170.094 1147.84C170.094 1148.2 173.772 1151.9 178.267 1156.07L186.44 1163.66L192.189 1158.35C197 1153.9 197.7 1152.94 196.485 1152.49C195.686 1152.19 190.065 1151.05 183.994 1149.96C177.923 1148.87 172.312 1147.8 171.525 1147.59C170.737 1147.38 170.094 1147.49 170.094 1147.84ZM336.165 1155.23C328.526 1162.39 328.453 1162.07 337.918 1162.93L343.438 1163.44V1156.14C343.438 1152.12 343.338 1148.83 343.215 1148.83C343.093 1148.83 339.92 1151.71 336.165 1155.23ZM200.599 1162.47L193.083 1169.89L223.089 1197.85L253.094 1225.82L281.922 1198.94L310.749 1172.06L294.591 1169.61C285.704 1168.27 263.306 1164.42 244.816 1161.05C226.327 1157.69 210.505 1154.96 209.657 1154.99C208.809 1155.02 204.733 1158.39 200.599 1162.47ZM287.044 1201.02L256.764 1229.26L279.87 1250.78L302.974 1272.31H323.205H343.438V1223.97V1175.63L337.918 1175.09C334.883 1174.79 329.008 1174.15 324.862 1173.67L317.325 1172.79L287.044 1201.02ZM137.509 1222.58L85.8045 1271.93L144.499 1272.12L203.194 1272.32L226.502 1250.59L249.81 1228.87L219.972 1201.05C203.561 1185.74 189.928 1173.23 189.675 1173.23C189.422 1173.23 165.947 1195.43 137.509 1222.58ZM2039.1 1175.82C2040.31 1176.42 2047.1 1182.38 2054.19 1189.07C2071.1 1205.05 2071.01 1203.11 2055.43 1218.07C2041.32 1231.63 2039 1233.44 2035.7 1233.44C2033.53 1233.44 2031.23 1231.62 2019.05 1220.27C2000.44 1202.92 2000.51 1205.41 2018.21 1188.67C2033.59 1174.14 2034.49 1173.58 2039.1 1175.82ZM348.344 1224.29V1272.31H364.904H381.465L425.41 1231.34L469.357 1190.37V1184.06V1177.75L460.567 1178.35C444.415 1179.44 385.424 1178.94 366.821 1177.55C357.421 1176.85 349.419 1176.27 349.037 1176.27C348.656 1176.27 348.344 1197.88 348.344 1224.29ZM481.622 1177.84C481.622 1178.29 481.99 1178.44 482.44 1178.18C482.89 1177.92 483.257 1177.56 483.257 1177.37C483.257 1177.19 482.89 1177.04 482.44 1177.04C481.99 1177.04 481.622 1177.4 481.622 1177.84ZM2038.45 1189.5C2038.45 1197.22 2038.58 1197.93 2040.49 1200.04C2041.67 1201.34 2042.53 1203.27 2042.53 1204.57C2042.53 1207.61 2039.3 1210.57 2035.99 1210.57C2030.22 1210.57 2027.41 1204.03 2031.52 1200.19C2033.52 1198.33 2033.59 1197.95 2033.36 1190.12L2033.13 1181.99L2021.48 1192.69C2015.07 1198.58 2009.83 1203.88 2009.83 1204.48C2009.83 1205.83 2034.43 1228.87 2035.88 1228.87C2037.32 1228.87 2062.16 1205.85 2062.16 1204.51C2062.16 1203.92 2056.83 1198.44 2050.31 1192.33L2038.46 1181.23L2038.45 1189.5ZM2291.76 1183.29C2292.46 1183.94 2292.74 1188.63 2292.74 1199.58C2292.74 1216.83 2292.75 1216.87 2298.39 1216.56C2302.24 1216.34 2303.62 1217.27 2303.23 1219.81C2302.63 1223.72 2292.75 1223.66 2288.52 1219.71L2286.2 1217.55V1200.4C2286.2 1187.4 2286.44 1183.17 2287.22 1182.88C2289.03 1182.19 2290.75 1182.35 2291.76 1183.29ZM2342.06 1187.72C2347.69 1189.68 2349.64 1191.54 2348.38 1193.74C2347.2 1195.79 2346.24 1195.74 2340.59 1193.33C2337.19 1191.88 2335.15 1191.46 2333.05 1191.78C2329.03 1192.38 2326.26 1194.26 2326.26 1196.37C2326.26 1198.41 2329.52 1199.98 2336.89 1201.48C2346.11 1203.36 2350.79 1206.96 2350.79 1212.17C2350.79 1214.4 2350.2 1215.66 2348.32 1217.45C2342.72 1222.79 2333.61 1223.82 2324.79 1220.12C2319.22 1217.78 2317.32 1215.78 2318.95 1213.95C2320.35 1212.38 2322.33 1212.6 2326.38 1214.76C2332.52 1218.03 2342.46 1216.92 2343.86 1212.81C2344.63 1210.55 2342.43 1208.63 2337.87 1207.58C2325.8 1204.81 2320.48 1202.05 2319.38 1197.99C2318.75 1195.63 2321.44 1190.44 2324.02 1189.07C2330.07 1185.84 2335.52 1185.44 2342.06 1187.72ZM2160.69 1189.03C2165.84 1191.43 2168.42 1194.88 2170.02 1201.51C2171.25 1206.61 2170.84 1206.76 2155.74 1206.76C2140.96 1206.76 2140.79 1206.83 2143.63 1211.3C2145.25 1213.86 2148.23 1215.59 2152.21 1216.29C2155.74 1216.9 2158.83 1215.62 2162.12 1212.17C2164.69 1209.48 2165.37 1209.33 2167.17 1211.01C2168.79 1212.52 2168.79 1212.55 2166.75 1215.63C2164.13 1219.58 2158.58 1222.26 2153.02 1222.26C2147.47 1222.25 2144.25 1220.82 2140.46 1216.7C2135.4 1211.18 2134.37 1203.84 2137.71 1197.14C2142.01 1188.55 2152.04 1185 2160.69 1189.03ZM2259.01 1189C2262.91 1190.71 2266.28 1194.7 2267.92 1199.54C2270.2 1206.31 2270.13 1206.34 2254.02 1206.59C2243.94 1206.74 2240.41 1207.04 2240.41 1207.73C2240.42 1209.54 2243.7 1213.65 2246.33 1215.15C2251.1 1217.86 2254.8 1217.08 2260.26 1212.21C2262.77 1209.97 2263.61 1209.62 2264.75 1210.29C2267.48 1211.88 2266.93 1214.32 2263.08 1217.77C2251.76 1227.88 2234.28 1220.04 2234.28 1204.86C2234.28 1192 2247.11 1183.77 2259.01 1189ZM2097.09 1203.25C2101.26 1211.59 2104.68 1219.04 2104.68 1219.8C2104.68 1221.64 2101.82 1223.06 2100.01 1222.11C2099.25 1221.72 2095.21 1214.47 2091.03 1206.01C2084.78 1193.35 2083.59 1190.36 2084.3 1189.12C2084.89 1188.08 2085.84 1187.69 2087.33 1187.85C2089.29 1188.06 2090.23 1189.55 2097.09 1203.25ZM2118.86 1189.36C2119.53 1190.36 2118.46 1193.14 2113.9 1202.22L2108.08 1213.8L2106.38 1210.69C2105.44 1208.98 2104.68 1207.22 2104.68 1206.77C2104.68 1205.41 2112.98 1188.89 2113.97 1188.27C2115.4 1187.39 2117.91 1187.95 2118.86 1189.36ZM2204.13 1203.33C2212.09 1212.46 2217.44 1219.25 2217.47 1220.26C2217.52 1222.2 2214.79 1223.89 2213.08 1222.99C2212.45 1222.66 2209.66 1219.73 2206.88 1216.48C2204.11 1213.23 2201.55 1210.57 2201.2 1210.57C2200.85 1210.57 2198.41 1213.14 2195.78 1216.27C2190.55 1222.49 2189.56 1223.15 2187.2 1221.98C2184.57 1220.66 2185.37 1218.68 2191.36 1211.71L2197.09 1205.03L2194.22 1201.7C2192.64 1199.87 2190.06 1196.88 2188.49 1195.06C2184.46 1190.39 2184.77 1187.53 2189.25 1187.94C2190.22 1188.03 2195.96 1193.96 2204.13 1203.33ZM2216.53 1188.62C2218.24 1190.21 2217.63 1191.54 2212.94 1196.52L2208.37 1201.38L2206.34 1199.12L2204.31 1196.87L2208.17 1192.29C2212.07 1187.66 2214.4 1186.64 2216.53 1188.62ZM1830.76 1201.05C1830.76 1211.05 1830.25 1213.65 1828.75 1211.39C1828.47 1210.97 1827.44 1211.08 1826.24 1211.66C1823.69 1212.9 1820.67 1212.39 1818.75 1210.41C1817.68 1209.31 1817.27 1207.66 1817.27 1204.42C1817.27 1198.78 1819.21 1196.57 1824.2 1196.51C1827.42 1196.47 1827.49 1196.41 1827.49 1193.74C1827.49 1190.8 1827.96 1189.99 1829.67 1189.99C1830.53 1189.99 1830.76 1192.34 1830.76 1201.05ZM1869.85 1191.72C1870.18 1193.29 1867.82 1194.36 1866.57 1193.19C1865.33 1192.03 1866.47 1189.83 1868.16 1190.14C1868.94 1190.28 1869.7 1190.99 1869.85 1191.72ZM1939.66 1190.95C1939.74 1191.47 1939.83 1196.44 1939.86 1201.99C1939.9 1209.21 1939.65 1212.09 1938.96 1212.09C1938.44 1212.1 1937.88 1211.73 1937.72 1211.29C1937.53 1210.76 1936.67 1210.85 1935.19 1211.56C1929.93 1214.11 1926.03 1210.78 1926.14 1203.84C1926.2 1200.24 1926.53 1199.36 1928.41 1197.86C1929.75 1196.78 1931.66 1196.09 1933.32 1196.09C1935.85 1196.09 1936.06 1195.89 1936.55 1193.04C1936.89 1191.07 1937.51 1189.99 1938.29 1189.99C1938.96 1189.99 1939.57 1190.42 1939.66 1190.95ZM1956.36 1193.74L1955.82 1197.5L1958.15 1196.68C1961.84 1195.38 1964.77 1196.48 1966.22 1199.71C1969.11 1206.15 1965.58 1212.11 1958.88 1212.09C1957 1212.08 1955.05 1211.82 1954.55 1211.51C1954.01 1211.18 1953.47 1206.8 1953.19 1200.47L1952.73 1189.99H1954.81C1956.83 1189.99 1956.88 1190.1 1956.36 1193.74ZM2148.01 1194.49C2146.44 1195.29 2144.49 1197.01 2143.67 1198.31L2142.2 1200.66H2152.9C2164.81 1200.66 2164.95 1200.56 2159.62 1195.84C2156.45 1193.03 2151.91 1192.5 2148.01 1194.49ZM2246.43 1194.5C2243.97 1195.9 2241.23 1198.84 2241.23 1200.07C2241.23 1200.4 2245.83 1200.66 2251.45 1200.66C2257.07 1200.66 2261.67 1200.37 2261.67 1200C2261.67 1198.76 2258.25 1195.3 2255.91 1194.17C2252.74 1192.64 2249.51 1192.76 2246.43 1194.5ZM1846.11 1197.28C1847.47 1198.16 1847.93 1199.23 1847.93 1201.47V1204.48H1842.56C1837.37 1204.48 1837.21 1204.53 1837.76 1206.19C1838.8 1209.36 1839.89 1209.99 1843.61 1209.6C1846.16 1209.34 1847.11 1209.51 1847.11 1210.24C1847.11 1211.71 1845.89 1212.19 1842.04 1212.24C1837.25 1212.3 1834.85 1209.67 1834.85 1204.38C1834.85 1202.28 1835.24 1199.88 1835.72 1199.05C1837.37 1196.17 1842.96 1195.22 1846.11 1197.28ZM1860.03 1196.58C1862.93 1197.3 1861.64 1198.76 1858.1 1198.76C1855.71 1198.76 1854.85 1199.09 1854.63 1200.11C1854.43 1201.09 1855.35 1201.87 1857.99 1202.96C1862.06 1204.64 1863.16 1206.71 1861.59 1209.75C1860.33 1212.21 1856.87 1213.4 1853.87 1212.42C1852.64 1212.01 1851.51 1211.12 1851.37 1210.43C1851.15 1209.4 1851.65 1209.25 1854.26 1209.57C1856.48 1209.85 1857.71 1209.63 1858.43 1208.81C1859.6 1207.5 1859.3 1207.16 1854.47 1204.24C1848.17 1200.44 1852.36 1194.66 1860.03 1196.58ZM1868.74 1197.04C1868.91 1197.57 1869.26 1201.17 1869.52 1205.05C1869.98 1212 1869.97 1212.1 1868.13 1212.1C1866.31 1212.1 1866.27 1211.95 1866.43 1204.28C1866.52 1199.99 1866.63 1196.39 1866.67 1196.28C1866.9 1195.66 1868.48 1196.24 1868.74 1197.04ZM1885.99 1196.87L1888.17 1197.64L1887.88 1206.38C1887.62 1213.87 1887.35 1215.33 1885.95 1216.61C1883.53 1218.83 1875.73 1219.17 1875.73 1217.05C1875.73 1216.21 1876.67 1215.91 1879.25 1215.91C1882.91 1215.91 1884.73 1214.91 1884.73 1212.89C1884.73 1211.95 1883.96 1211.76 1881 1211.98C1875.68 1212.38 1874.1 1210.84 1874.1 1205.29C1874.1 1197.85 1878.99 1194.39 1885.99 1196.87ZM1904.32 1197.76C1905.72 1199.16 1905.99 1200.44 1905.99 1205.76C1905.99 1211.59 1905.85 1212.1 1904.35 1212.1C1902.88 1212.1 1902.71 1211.59 1902.71 1207.19C1902.71 1199.18 1900.61 1196.47 1896.85 1199.64C1895.66 1200.64 1895.36 1202.04 1895.36 1206.5C1895.36 1211.59 1895.21 1212.1 1893.72 1212.1C1892.19 1212.1 1892.09 1211.59 1892.09 1204.48C1892.09 1198.21 1892.3 1196.85 1893.31 1196.85C1893.99 1196.85 1894.54 1197.22 1894.54 1197.66C1894.54 1198.11 1895.34 1197.94 1896.36 1197.28C1898.93 1195.59 1902.36 1195.8 1904.32 1197.76ZM1921.52 1197.62C1922.53 1198.56 1923.16 1200.16 1923.16 1201.81V1204.48H1917.84C1913.14 1204.48 1912.53 1204.64 1912.53 1205.95C1912.53 1208.47 1914.88 1209.95 1918.5 1209.67C1922.8 1209.35 1923.44 1210.98 1919.42 1212.02C1915.51 1213.02 1911.22 1211.48 1910.07 1208.65C1908.94 1205.88 1909.05 1200.43 1910.28 1199C1912.99 1195.83 1918.84 1195.11 1921.52 1197.62ZM1973.82 1202C1974.87 1204.83 1975.96 1207.4 1976.25 1207.71C1976.54 1208.02 1977.5 1205.83 1978.38 1202.85C1979.82 1197.95 1981.3 1195.92 1982.56 1197.09C1983.14 1197.64 1977.26 1214.2 1975.67 1216.48C1974.31 1218.44 1970.58 1218.86 1970.58 1217.05C1970.58 1216.42 1971.14 1215.91 1971.82 1215.91C1972.51 1215.91 1973.49 1215.05 1974 1213.99C1974.8 1212.37 1974.49 1211.04 1971.94 1205.02C1970.29 1201.14 1968.95 1197.72 1968.95 1197.41C1968.95 1197.1 1969.61 1196.85 1970.43 1196.85C1971.53 1196.85 1972.41 1198.19 1973.82 1202ZM1821.95 1199.56C1820.58 1200.45 1820.13 1201.51 1820.13 1203.81C1820.13 1207.74 1821.35 1209.81 1823.68 1209.81C1826.57 1209.81 1827.49 1208.33 1827.49 1203.64C1827.49 1200.39 1827.17 1199.19 1826.2 1198.84C1824.35 1198.18 1823.98 1198.24 1821.95 1199.56ZM1839.55 1199.2C1836.76 1200.72 1837.87 1202.19 1841.8 1202.19C1845.69 1202.19 1846.29 1201.53 1844.19 1199.57C1842.72 1198.2 1841.57 1198.1 1839.55 1199.2ZM1878.53 1200.27C1876.71 1201.97 1876.43 1202.75 1876.83 1205.05C1877.1 1206.56 1877.85 1208.3 1878.5 1208.9C1880.15 1210.44 1883.59 1209.5 1884.21 1207.34C1884.97 1204.68 1884.82 1199.14 1883.98 1199.14C1883.56 1199.14 1882.66 1198.94 1881.97 1198.69C1881.22 1198.42 1879.83 1199.06 1878.53 1200.27ZM1957.46 1199.94C1956.11 1201.19 1955.83 1202.29 1956.03 1205.47C1956.26 1209.3 1956.36 1209.44 1958.85 1209.66C1960.78 1209.84 1961.76 1209.46 1962.73 1208.16C1964.52 1205.78 1964.42 1201.22 1962.54 1199.64C1960.58 1197.98 1959.49 1198.05 1957.46 1199.94ZM1913.34 1200.66C1912.53 1202.09 1912.72 1202.19 1916.27 1202.19C1919.39 1202.19 1919.97 1201.98 1919.56 1200.98C1919.29 1200.32 1919.07 1199.63 1919.07 1199.46C1919.07 1199.28 1917.98 1199.14 1916.64 1199.14C1915.06 1199.14 1913.92 1199.67 1913.34 1200.66ZM1930.23 1200.53C1928.71 1202.1 1928.49 1204.95 1929.68 1207.86C1930.29 1209.35 1931.05 1209.81 1932.92 1209.81C1936.01 1209.81 1937.06 1208.08 1937.06 1203V1199.14H1934.32C1932.71 1199.14 1931.03 1199.71 1930.23 1200.53ZM434.198 1239.92L399.455 1272.31H434.406H469.357V1239.92C469.357 1222.1 469.264 1207.52 469.15 1207.52C469.035 1207.52 453.307 1222.1 434.198 1239.92ZM231.827 1252.49L210.579 1272.31H253.495H296.411L275.163 1252.49C263.477 1241.59 253.726 1232.68 253.495 1232.68C253.264 1232.68 243.513 1241.59 231.827 1252.49Z" fill="#130235"/>
</g>
<defs>
<clipPath id="clip0_111:6">
<rect width="1920" height="1024" fill="white"/>
</clipPath>
</defs>
</svg>
